<svg xmlns="http://www.w3.org/2000/svg" xmlns:xlink="http://www.w3.org/1999/xlink" viewBox="0 0 124.125 125.167" fill="#fff" fill-rule="evenodd" stroke="#000" stroke-linecap="round" stroke-linejoin="round"><use xlink:href="#A" x="2.083" y="2.083"/><symbol id="A" overflow="visible"><g stroke="none" fill-rule="nonzero"><use xlink:href="#C"/><path d="M120.834 60.417c0 3.333-.271 6.667-.833 9.854-1.458 9.167-5.042 17.604-10.208 24.875C101 107.709 87.5 116.771 71.834 119.751c-3.763.72-7.585 1.083-11.417 1.083-1.035.004-2.071-.024-3.104-.083h-.146l-2.917-.208c-.083 0-.167-.021-.25-.021-.833-.083-1.625-.208-2.437-.312-.208-.042-.479-.062-.708-.104l-1.875-.333-2.917-.625c-.405-.087-.808-.185-1.208-.292a47.96 47.96 0 0 1-1.625-.479l-1.458-.458c-.5-.146-.979-.312-1.458-.5l-1.187-.417a4.33 4.33 0 0 1-.667-.25l-2.417-1.042-1.604-.75c-.542-.25-1.042-.521-1.604-.792-.479-.25-.937-.5-1.417-.771-.542-.292-1.042-.583-1.583-.896l-1.75-1.042a6.9 6.9 0 0 1-.5-.333c-.833-.521-1.625-1.083-2.396-1.667-.667-.458-1.312-.958-1.937-1.458-.062-.042-.104-.083-.167-.146-.562-.417-1.104-.875-1.625-1.333-.042-.021-.083-.062-.125-.104l-1.625-1.417c-.042-.021-.062-.042-.083-.083L18 103.355l-1.583-1.625c8.333 4.875 17.917 7.854 28.167 8.229a45.14 45.14 0 0 0 2.375.063c13.545.027 26.701-4.525 37.333-12.917 12.5-9.792 21-24.437 22.75-41.083a59.33 59.33 0 0 0 .333-6.417c0-4.312-.458-8.5-1.312-12.542v-.021C103.771 26.105 98.5 16.313 91.167 8.438c2.208 1.313 4.375 2.771 6.375 4.333 1.167.917 2.292 1.875 3.417 2.875 1.125 1.042 2.188 2.042 3.208 3.125 2.057 2.155 3.951 4.46 5.667 6.896 1.042 1.458 2.021 2.958 2.917 4.521.313.521.625 1.042.896 1.583.351.626.678 1.265.979 1.917a26.26 26.26 0 0 1 .646 1.333c.333.667.625 1.333.896 2 .329.745.628 1.502.896 2.271a25.38 25.38 0 0 1 .625 1.771l.5 1.5c.208.667.417 1.333.583 2 .125.479.25.938.354 1.417.38 1.477.686 2.972.917 4.479.083.417.146.875.208 1.333.104.667.208 1.354.25 2.021.042.292.083.583.104.833.07.735.119 1.471.146 2.208.042.313.063.625.063.917a55.05 55.05 0 0 1 .021 2.646z" fill="#d0cfce"/></g><use xlink:href="#C" fill="none" stroke-width="4.167" stroke-linejoin="miter"/><path d="M56.744 43.902l-12.825 9.317a6.25 6.25 0 0 0-2.271 6.988l4.896 15.075a6.25 6.25 0 0 0 5.944 4.319h15.833a6.25 6.25 0 0 0 5.944-4.319l4.896-15.075a6.25 6.25 0 0 0-2.271-6.988l-12.825-9.317a6.25 6.25 0 0 0-7.348 0zM81.833 6.625l-17.5 8.583a8.77 8.77 0 0 1-3.896.854c-1.213-.021-2.407-.305-3.5-.833L39.021 6.688a2.14 2.14 0 0 1-1.167-2.292C44.792 1.542 52.417 0 60.417 0c7.979 0 15.625 1.542 22.563 4.375a2.07 2.07 0 0 1-1.146 2.25zM48.958 119.75l-2.917-.625-1.208-.292-1.625-.479-1.458-.458-1.458-.5-1.187-.417a4.34 4.34 0 0 1-.667-.25l-2.417-1.042-3.208-1.542-1.421-.762-1.583-.902-1.75-1.058-.504-.333c-6.524-4.223-12.174-9.662-16.642-16.021.417-.708 1.208-1.146 2.083-1.042l19.458 2.375c1.333.167 2.583.625 3.667 1.354a8.56 8.56 0 0 1 2.542 2.646l5.875 9.583 4.583 7.458c.458.75.417 1.667-.125 2.354zM17 50.792a8.71 8.71 0 0 1-1.646 3.354L3.063 69.354c-.583.708-1.521.958-2.292.688A59.02 59.02 0 0 1 0 60.417c0-12.854 4-24.792 10.875-34.583.875.104 1.667.729 1.833 1.667l4.333 19.438c.292 1.25.271 2.583-.042 3.833zm92.833 44.375c-8.833 12.542-22.333 21.604-38 24.583-.556-.685-.615-1.648-.146-2.396l10.417-16.958a8.54 8.54 0 0 1 2.583-2.667c1.083-.708 2.292-1.167 3.625-1.333l19.375-2.375c.879-.103 1.731.344 2.146 1.125zm11-34.75c.008 3.303-.271 6.6-.833 9.854-.777.175-1.585-.108-2.083-.729l-12.458-15.417c-1.625-2-2.25-4.646-1.667-7.187L106 37.042v-.021l2.167-9.792a2.05 2.05 0 0 1 1.604-1.604c1.042 1.458 2.042 2.958 2.917 4.521l.896 1.583.979 1.917.625 1.333.896 2 .896 2.292.625 1.771.5 1.5.583 2 .354 1.417.917 4.479.208 1.333.354 2.875.146 2.208c.042.313.063.625.063.917l.104 2.646z" stroke="none" fill="#000" fill-rule="nonzero"/><path d="M60.417 16.067v26.642m18.75 13.542L103.8 50.7M72.083 78.369l12.598 19.365M48.758 78.346l-12.604 19.39m5.513-41.444L17.004 50.78" fill="none" stroke-width="4.167" stroke-miterlimit="10"/></symbol><defs ><path id="C" d="M120.833 60.417c0 3.333-.271 6.667-.833 9.854-1.458 9.167-5.042 17.604-10.208 24.875C101 107.708 87.5 116.771 71.833 119.75c-3.763.72-7.585 1.083-11.417 1.083a50.93 50.93 0 0 1-3.104-.083h-.146l-2.917-.208c-.083 0-.167-.021-.25-.021-.833-.083-1.625-.208-2.437-.312-.208-.042-.479-.062-.708-.104l-1.875-.333-2.917-.625c-.405-.087-.808-.185-1.208-.292-.542-.146-1.083-.312-1.625-.479l-1.458-.458c-.5-.146-.979-.312-1.458-.5L39.125 117a4.33 4.33 0 0 1-.667-.25l-2.417-1.042c-1.083-.479-2.146-1-3.208-1.542a47.23 47.23 0 0 1-1.417-.771c-.542-.292-1.042-.583-1.583-.896l-1.75-1.042c-.167-.104-.333-.208-.5-.333a32.62 32.62 0 0 1-2.396-1.667c-.667-.458-1.312-.958-1.937-1.458-.062-.042-.104-.083-.167-.146-.562-.417-1.104-.875-1.625-1.333-.273-.211-.537-.433-.792-.667l-.625-.542c-.042-.021-.062-.042-.083-.062-.062-.062-.125-.125-.208-.167-.042-.021-.062-.062-.083-.083-.042-.021-.062-.042-.083-.083-.267-.225-.524-.462-.771-.708-.271-.25-.521-.479-.75-.729-.042-.042-.083-.083-.104-.125a16.02 16.02 0 0 0-.625-.583c-.317-.317-.608-.671-.917-1l-.042-.042-2.083-2.25c-.5-.583-1-1.187-1.458-1.812a49.74 49.74 0 0 1-1.937-2.604c-5.125-7.292-8.667-15.833-10.146-25-.5-3.187-.75-6.375-.75-9.646 0-12.854 4-24.792 10.875-34.583 6.667-9.542 16-17.083 26.938-21.458C44.792 1.542 52.417 0 60.417 0c7.979 0 15.625 1.542 22.563 4.375 5.25 2.083 10.125 4.917 14.521 8.375a48.95 48.95 0 0 1 3.417 2.875h.021c1.104 1 2.167 2.042 3.188 3.125 1.563 1.604 3 3.292 4.375 5.083l1.313 1.792h0c1.042 1.458 2.042 2.958 2.917 4.521.313.521.625 1.042.896 1.583a27.74 27.74 0 0 1 .979 1.917c.228.438.443.883.646 1.333.333.667.625 1.333.896 2 .329.745.628 1.502.896 2.271a25.5 25.5 0 0 1 .625 1.771l.5 1.5c.208.667.417 1.333.583 2 .125.479.25.938.354 1.417a46.03 46.03 0 0 1 .917 4.479c.083.417.146.875.208 1.333.104.667.208 1.354.25 2.021.042.292.083.583.104.833.063.729.125 1.458.146 2.208.042.313.063.625.063.917a55.87 55.87 0 0 1 .042 2.688z"/></defs></svg>