<svg xmlns="http://www.w3.org/2000/svg" xmlns:xlink="http://www.w3.org/1999/xlink" viewBox="0 0 127.167 111.125" fill="#fff" fill-rule="evenodd" stroke="#000" stroke-linecap="round" stroke-linejoin="round"><use xlink:href="#A" x="2.083" y="1.042"/><symbol id="A" overflow="visible"><g stroke="none" fill-rule="nonzero"><use xlink:href="#C"/><path d="M50.058 69.557L31.135 51.848 16.667 41.015 0 56.03v24.727h33.333M87.5 103.673h35.417V77.398L103.85 60.678 83.419 78.042"/><path d="M72.083 53.673v-20.05l-11.667-11.2-11.667 11.2v20.05"/><path d="M87.5 107.839V68.256l-35.417 39.583m-18.75-27.083V64.783L17.36 80.756m105.556 22.917v-25l-20.833 25" fill="#d0cfce"/><g fill="#000"><path d="M60.416 24.013a2.19 2.19 0 0 1-2.183-2.183V2.183A2.19 2.19 0 0 1 60.416 0 2.19 2.19 0 0 1 62.6 2.183v19.646a2.19 2.19 0 0 1-2.183 2.183z"/><path d="M68.384 12.334H52.452a2.19 2.19 0 0 1-2.183-2.183 2.19 2.19 0 0 1 2.183-2.183h15.931a2.19 2.19 0 0 1 2.183 2.183 2.19 2.19 0 0 1-2.183 2.183z"/></g></g><g fill="none" stroke-width="4.167"><use xlink:href="#C"/><path d="M33.333 56.027L16.667 41.013 0 56.027v24.729h33.333M87.5 103.673h35.417V77.398l-17.708-15.952-9.673 8.596M72.083 53.673v-20.05l-11.667-11.2-11.667 11.2v20.05"/></g></symbol><defs ><path id="C" d="M87.5 67.652L60.416 43.256 33.333 67.652v40.187H87.5z"/></defs></svg>