<svg xmlns="http://www.w3.org/2000/svg" xmlns:xlink="http://www.w3.org/1999/xlink" viewBox="0 0 109.167 71.125" fill="#fff" fill-rule="evenodd" stroke="#000" stroke-linecap="round" stroke-linejoin="round"><style><![CDATA[.B{fill:#d0cfce}.C{fill:none}.D{fill-rule:nonzero}.E{stroke-width:4.167}]]></style><use xlink:href="#A" x="2.083" y="1.042"/><symbol id="A" overflow="visible"><g stroke="none" class="D"><path d="M33.209 35.113L1.23 64.592C.5 63.3.042 61.592.042 59.758V4.55l33.167 30.625zM21.817 0H81.28v6.51H21.817z" class="B"/><path d="M104.084 4.383v55.333c0 1.792-.417 3.438-1.146 4.729L77.379 41.066l-3.365 2.552-5.094-6.735 35.163-32.5z" fill="#9b9b9a"/><use xlink:href="#C" class="B"/></g><g stroke="#d0cfce"><path d="M33.209 35.113l9.313 8.604c.469.434.97.831 1.5 1.188 5.063 3.75 10.958 3.75 16-.021.503-.358.983-.748 1.438-1.167l9.375-8.646 32.083 29.375c-.875 1.604-2.229 2.646-3.75 2.646H4.876c-1.458 0-2.792-.979-3.687-2.542l31.979-29.458" stroke-width="3.75" class="B D"/><path d="M19.379 33.55h14.583v10.417H19.379z" class="B D E"/></g><g stroke="none"><use xlink:href="#D" class="B D"/><use xlink:href="#E" class="B D"/></g><g class="E"><g stroke="#ea5a47" stroke-linejoin="miter" class="C"><path d="M56.25 1.79h-8.333v14.583h8.333"/><path d="M47.917 9.081h6.25"/></g><path d="M19.53 47.717L1.23 64.592C.5 63.3.042 61.592.042 59.759V4.55l33.167 30.625m35.713 1.729l35.163-32.521v55.333c0 1.792-.417 3.438-1.146 4.729L77.38 41.067M1.367 3.654l-.129-.083" class="C"/><use xlink:href="#C" class="C"/><use xlink:href="#D" class="C"/><use xlink:href="#E" class="C"/><path d="M5.188 67.092s-5.729.292-5.146-9.344" class="C"/></g></symbol><defs ><path id="C" d="M33.208 35.113l9.313 8.604c.469.434.97.831 1.5 1.188 5.063 3.75 10.958 3.75 16-.021a14.69 14.69 0 0 0 1.438-1.167l9.375-8.646"/><path id="D" d="M77.218 40.917l25.719 23.55c-.875 1.604-2.229 2.646-3.75 2.646H4.896c-1.458 0-2.792-.979-3.687-2.542l25.163-23.179"/><path id="E" d="M80.807 2.092h19.708c1.25 0 2.417.729 3.271 1.875.109.13.207.27.292.417L61.453 43.696c-.454.419-.934.808-1.437 1.167-5.042 3.75-10.937 3.75-16 .021-.53-.357-1.031-.754-1.5-1.187L.015 4.488l.292-.417c.875-1.25 2.083-2 3.333-2h17.667"/></defs></svg>