<svg xmlns="http://www.w3.org/2000/svg" xmlns:xlink="http://www.w3.org/1999/xlink" viewBox="0 0 71.167 108.125" fill="#fff" fill-rule="evenodd" stroke="#000" stroke-linecap="round" stroke-linejoin="round"><use xlink:href="#A" x="2.083" y="1.042"/><symbol id="A" overflow="visible"><g stroke="none" fill-rule="nonzero"><path d="M66.263 35.192C66.263 15.785 51.4 0 33.131 0S0 15.785 0 35.2c.006.969.467 24.188 27 65.094 1.111 2.282 3.34 3.812 5.869 4.029 3.833 0 6.446-4.223 6.7-4.652 26.708-40.908 26.708-63.535 26.694-64.479zM33.131 49.388a14.76 14.76 0 0 1-14.756-14.756 14.76 14.76 0 0 1 14.756-14.756 14.76 14.76 0 0 1 14.756 14.756c-.009 8.146-6.61 14.747-14.756 14.756z" fill="#d22f27"/><path d="M66.262 35.192C66.262 15.785 51.4 0 33.131 0a31.17 31.17 0 0 0-8.05 1.094c17.49.938 31.458 16.298 31.458 35.104.015.925.015 23.55-26.692 64.479-.36.587-.769 1.142-1.223 1.66a5.95 5.95 0 0 0 4.248 1.985c3.833 0 6.446-4.223 6.7-4.652 26.704-40.908 26.704-63.535 26.69-64.479z" fill="#ea5a47"/></g><g fill="none" stroke-width="4.167"><path d="M32.871 104.346c-2.529-.217-4.757-1.747-5.869-4.029C.485 59.406.006 36.192 0 35.221 0 15.804 14.863.021 33.131.021s33.131 15.785 33.131 35.171c.015.925.015 23.55-26.692 64.479-.254.429-2.869 4.652-6.7 4.652z"/><path d="M33.131 49.388a14.76 14.76 0 0 1-14.756-14.756 14.76 14.76 0 0 1 14.756-14.756 14.76 14.76 0 0 1 14.756 14.756c-.009 8.146-6.61 14.747-14.756 14.756z"/></g></symbol></svg>