<svg xmlns="http://www.w3.org/2000/svg" xmlns:xlink="http://www.w3.org/1999/xlink" viewBox="0 0 119.167 77.167" fill="#fff" fill-rule="evenodd" stroke="#000" stroke-linecap="round" stroke-linejoin="round"><use xlink:href="#A" x="2.083" y="2.083"/><symbol id="A" overflow="visible"><g stroke="none" fill-rule="nonzero"><path d="M0 0h114.583v72.917H0z" fill="#d0cfce"/><path d="M39.583 45.833H75v27.083H39.583z" fill="#a57939"/><use xlink:href="#C"/></g><g stroke-miterlimit="10" fill="none" stroke-width="4.167"><path d="M23.958 52.084h4.167V62.5h-4.167zm-14.583 0h4.167V62.5H9.375zM23.958 31.25h4.167v10.417h-4.167zm-14.583 0h4.167v10.417H9.375zm14.583-20.833h4.167v10.417h-4.167zm-14.583 0h4.167v10.417H9.375zm91.667 41.667h4.167V62.5h-4.167zm-14.583 0h4.167V62.5h-4.167zm14.583-20.833h4.167v10.417h-4.167zm-14.583 0h4.167v10.417h-4.167zm14.583-20.833h4.167v10.417h-4.167zm-14.583 0h4.167v10.417h-4.167z" stroke="#92d3f5"/><path d="M0 0h114.583v72.917H0z"/><path d="M39.583 45.833H75v27.083H39.583z"/><path d="M57.292 72.916V45.833"/></g><use xlink:href="#C" fill="none" stroke-width="4.167"/><path d="M57.292 22.916v-8.333m0 8.333l4.167-2.083M28.125 62.5h-4.167V52.084M13.542 62.5H9.375V52.084m18.75-10.417h-4.167V31.25M13.542 41.667H9.375V31.25m18.75-10.417h-4.167V10.417M13.542 20.834H9.375V10.417M105.208 62.5h-4.167V52.084M90.625 62.5h-4.167V52.084" fill="none" stroke-width="4.167"/><path d="M105.208 41.667h-4.167V31.25M90.625 41.667h-4.167V31.25m18.75-10.417h-4.167V10.417M90.625 20.834h-4.167V10.417" fill="none" stroke-width="4.167"/></symbol><defs ><path id="C" d="M43.75 21.875c0-7.502 6.04-13.542 13.542-13.542s13.542 6.04 13.542 13.542-6.04 13.542-13.542 13.542S43.75 29.377 43.75 21.875z"/></defs></svg>